<?xml version="1.0" encoding="UTF-8"?>
<svg xmlns="http://www.w3.org/2000/svg" version="1.1" viewBox="0 0 120 120">
  <defs>
    <style>
      .cls-1 {
        fill: #654d49;
      }

      .cls-2 {
        display: none;
      }

      .cls-3 {
        fill: #559e33;
      }

      .cls-4 {
        fill: #94746b;
      }

      .cls-5 {
        fill: #322625;
      }
    </style>
  </defs>
  <!-- Generator: Adobe Illustrator 28.7.5, SVG Export Plug-In . SVG Version: 1.2.0 Build 176)  -->
  <g>
    <g id="Layer_1">
      <g>
        <g class="cls-2">
          <path class="cls-5" d="M13.16,54.01c2.69,0,5.13,1.07,7.32,3.21.69.67,1.26,1.28,1.72,1.84-.02.02-1.48,1.31-4.41,3.88l-.96-1.19c-1.25-1.35-2.51-2.02-3.76-2.02-1.16,0-2,.45-2.5,1.35-.09.2-.14.41-.14.64v.09c0,.75.44,1.51,1.31,2.27,1.67,1.56,3.76,3.37,6.26,5.44,1.22,1.09,2.1,1.98,2.64,2.68,1.41,1.73,2.11,3.66,2.11,5.78,0,3.26-1.42,5.78-4.25,7.57-1.53.87-3.33,1.31-5.39,1.31-4.47,0-7.8-2.26-10-6.79,3.26-1.99,4.93-2.99,5-3.01,1.5,2.75,3.22,4.13,5.16,4.13,1.51,0,2.64-.63,3.37-1.88.17-.38.25-.73.25-1.06,0-1.19-.8-2.46-2.41-3.79-.58-.55-1.76-1.54-3.53-2.98-.9-.76-2.03-1.84-3.4-3.21-1.99-2.1-2.98-4.18-2.98-6.26v-.21c0-2.6,1.25-4.76,3.76-6.47,1.41-.89,3.01-1.33,4.82-1.33Z"/>
          <path class="cls-5" d="M45.22,53.92s.41.98,1.08,2.94c4.21,11.86,6.35,17.92,6.42,18.2h-6.42c-.05-.08-.45-1.22-1.22-3.44l-2.89-8.1h-.02c-.34.98-3.12,8.74-8.35,23.27,0,.06-.02.09-.07.09h-6.36s-.05-.02-.05-.05c1.04-2.89,4.11-11.4,9.2-25.54,1.7-4.71,2.59-7.17,2.66-7.37h6.01ZM48.36,80.74h6.36s.18.34.39,1.03l1.81,5.07-.05.02h-6.38s-.28-.7-.76-2.04l-1.42-4.06.05-.02Z"/>
          <path class="cls-5" d="M74.24,60.57c1.3-.52,2.72-.78,4.28-.78,3.52,0,6.62,1.4,9.29,4.2,2.78-2.75,4.18-4.13,4.2-4.13-.37-.41-.86-.9-1.47-1.47-.95-.84-1.81-1.5-2.57-1.97-2.8-1.65-5.97-2.48-9.5-2.48-3.28,0-6.17.73-8.68,2.18,1.49,1.49,2.97,2.97,4.46,4.46Z"/>
          <path class="cls-5" d="M94.21,70.18h-15.74s-.03,0-.05.02v5.53s.02.05.05.05h9.02c-1.62,3.58-4.48,5.37-8.58,5.37-3.15,0-5.8-1.02-7.94-3.07-2.2-2.14-3.3-4.7-3.3-7.66v-.25c0-1.34.26-2.63.75-3.85-1.48-1.48-2.97-2.97-4.45-4.45-1.53,2.49-2.29,5.19-2.29,8.1v.62c0,3.03.89,5.99,2.66,8.88.46.77,1.2,1.68,2.23,2.75,3.23,3.11,7.25,4.66,12.07,4.66,5.63,0,9.94-2.21,12.92-6.63,1.79-2.8,2.68-5.63,2.68-8.49,0-.31,0-.83-.02-1.56Z"/>
          <path class="cls-5" d="M98.87,53.92h17.9s.05.02.05.05v6.03s-.02.05-.05.05h-17.9s-.05-.02-.05-.05v-6.03s.02-.05.05-.05ZM98.87,66.01h17.9s.05.02.05.05v5.94s-.02.05-.05.05h-11.7v8.65h11.7s.05.03.05.05v6.08s-.02.05-.05.05h-17.9s-.05-.02-.05-.05v-20.77s.02-.05.05-.05Z"/>
        </g>
        <path class="cls-1" d="M107.43,55.41h-35.89v12.13h35.89c.12,0,.18-.03.18-.09v-11.94c0-.06-.06-.09-.18-.09Z"/>
        <path class="cls-1" d="M48.25,55.41H12.6c-.14,0-.21.03-.21.09v11.94c0,.06.07.09.21.09h35.64v-12.13Z"/>
        <path class="cls-4" d="M48.25,38.61H12.6c-.14,0-.21.03-.21.09v11.94c0,.06.07.09.21.09h35.64v-12.13Z"/>
        <path class="cls-4" d="M107.43,38.61h-35.89v12.13h35.89c.12,0,.18-.03.18-.09v-11.94c0-.06-.06-.09-.18-.09Z"/>
        <polygon class="cls-3" points="66.47 81.39 59.89 97.21 53.31 81.39 53.31 25.57 66.47 25.57 66.47 81.39"/>
      </g>
    </g>
  </g>
</svg>